<?xml version="1.0" encoding="UTF-8"?>
<svg id="_Слой_2" data-name="Слой 2" xmlns="http://www.w3.org/2000/svg" viewBox="0 0 220 220">
  <defs>
    <style>
      .cls-1 {
        fill: #f54242;
      }
    </style>
  </defs>
  <g id="_Слой_1-2" data-name="Слой 1">
    <g>
      <rect x=".5" y=".5" width="219" height="219"/>
      <path d="m219,1v218H1V1h218m1-1H0v220h220V0h0Z"/>
    </g>
    <g>
      <rect class="cls-1" x=".5" y=".5" width="139" height="19"/>
      <path class="cls-1" d="m139,1v18H1V1h138m1-1H0v20h140V0h0Z"/>
    </g>
    <g>
      <rect class="cls-1" x=".5" y="20.5" width="19" height="19"/>
      <path class="cls-1" d="m19,21v18H1v-18h18m1-1H0v20h20v-20h0Z"/>
    </g>
    <g>
      <rect class="cls-1" x=".5" y="40.5" width="139" height="19"/>
      <path class="cls-1" d="m139,41v18H1v-18h138m1-1H0v20h140v-20h0Z"/>
    </g>
    <g>
      <rect class="cls-1" x=".5" y="60.5" width="19" height="19"/>
      <path class="cls-1" d="m19,61v18H1v-18h18m1-1H0v20h20v-20h0Z"/>
    </g>
    <g>
      <rect class="cls-1" x=".5" y="80.5" width="139" height="19"/>
      <path class="cls-1" d="m139,81v18H1v-18h138m1-1H0v20h140v-20h0Z"/>
    </g>
    <g>
      <rect class="cls-1" x="180.5" y="40.5" width="19" height="19"/>
      <path class="cls-1" d="m199,41v18h-18v-18h18m1-1h-20v20h20v-20h0Z"/>
    </g>
    <g>
      <rect class="cls-1" x="160.5" y=".5" width="19" height="39"/>
      <path class="cls-1" d="m179,1v38h-18V1h18m1-1h-20v40h20V0h0Z"/>
    </g>
    <g>
      <rect class="cls-1" x="160.5" y="60.5" width="19" height="39"/>
      <path class="cls-1" d="m179,61v38h-18v-38h18m1-1h-20v40h20v-40h0Z"/>
    </g>
    <g>
      <rect class="cls-1" x="200.5" y=".5" width="19" height="39"/>
      <path class="cls-1" d="m219,1v38h-18V1h18m1-1h-20v40h20V0h0Z"/>
    </g>
    <g>
      <rect class="cls-1" x="200.5" y="60.5" width="19" height="39"/>
      <path class="cls-1" d="m219,61v38h-18v-38h18m1-1h-20v40h20v-40h0Z"/>
    </g>
    <g>
      <rect class="cls-1" x="160.5" y="160.5" width="19" height="19"/>
      <path class="cls-1" d="m179,161v18h-18v-18h18m1-1h-20v20h20v-20h0Z"/>
    </g>
    <g>
      <rect class="cls-1" x=".5" y="120.5" width="19" height="99"/>
      <path class="cls-1" d="m19,121v98H1v-98h18m1-1H0v100h20v-100h0Z"/>
    </g>
    <g>
      <rect class="cls-1" x="20.5" y="120.5" width="69" height="19"/>
      <path class="cls-1" d="m89,121v18H21v-18h68m1-1H20v20h70v-20h0Z"/>
    </g>
    <g>
      <rect class="cls-1" x="20.5" y="200.5" width="69" height="19"/>
      <path class="cls-1" d="m89,201v18H21v-18h68m1-1H20v20h70v-20h0Z"/>
    </g>
    <g>
      <rect class="cls-1" x="90.5" y="140.5" width="19" height="59"/>
      <path class="cls-1" d="m109,141v58h-18v-58h18m1-1h-20v60h20v-60h0Z"/>
    </g>
    <g>
      <rect class="cls-1" x="120.5" y="120.5" width="19" height="99"/>
      <path class="cls-1" d="m139,121v98h-18v-98h18m1-1h-20v100h20v-100h0Z"/>
    </g>
    <g>
      <rect class="cls-1" x="140.5" y="140.5" width="19" height="19"/>
      <path class="cls-1" d="m159,141v18h-18v-18h18m1-1h-20v20h20v-20h0Z"/>
    </g>
    <g>
      <rect class="cls-1" x="180.5" y="140.5" width="19" height="19"/>
      <path class="cls-1" d="m199,141v18h-18v-18h18m1-1h-20v20h20v-20h0Z"/>
    </g>
    <g>
      <rect class="cls-1" x="200.5" y="120.5" width="19" height="99"/>
      <path class="cls-1" d="m219,121v98h-18v-98h18m1-1h-20v100h20v-100h0Z"/>
    </g>
  </g>
</svg>